<svg width="232" height="58" viewBox="0 0 232 58" fill="none" xmlns="http://www.w3.org/2000/svg">
<path d="M18.8036 41.582C19.0351 42.244 19.3164 42.9067 19.6489 43.5632C19.9805 44.2202 20.3588 44.8739 20.7903 45.5145C20.8983 45.6746 21.0106 45.8329 21.1266 45.99C21.234 46.1415 21.3806 46.3244 21.5048 46.4849L21.6577 46.6788L21.696 46.7273L21.7152 46.7516L21.7628 46.8058L21.8573 46.9163C21.9846 47.0631 22.1123 47.2104 22.2406 47.3581C23.2875 48.5215 24.5077 49.5887 25.8623 50.5078C26.5411 50.964 27.2513 51.3875 27.9877 51.771C28.1486 51.853 28.3113 51.9325 28.4746 52.011C29.1356 51.8234 29.7866 51.6225 30.4236 51.4052L31.3476 51.0929L31.824 50.9162C31.9902 50.8548 32.1341 50.8013 32.2495 50.7537L32.4119 50.6887C32.6682 50.5866 32.9104 50.4899 33.1539 50.3842L33.1836 50.3717C33.4782 50.25 33.7814 50.1136 34.0652 49.9842C35.2905 49.426 36.4462 48.8122 37.5008 48.1591C37.7542 48.0034 38.0055 47.8416 38.2547 47.6746C36.2492 47.5114 34.3147 47.1204 32.5329 46.5169C30.2135 45.7355 28.1517 44.5916 26.5004 43.1376C26.3988 43.0451 26.2975 42.9529 26.1964 42.861L26.1198 42.7927C26.1242 42.7988 26.083 42.7549 26.1248 42.8021L26.1028 42.7805L26.0587 42.737L25.8828 42.5638C25.7953 42.4741 25.7245 42.4128 25.6294 42.3093C25.538 42.2155 25.4506 42.1182 25.3623 42.0217C25.0087 41.6358 24.6821 41.2266 24.3826 40.803C23.7896 39.9525 23.2758 39.057 22.8866 38.1389C22.0797 36.3092 21.6862 34.4407 21.5832 32.7588C21.4734 31.0712 21.6737 29.5675 21.9833 28.3483C22.2941 27.1265 22.7184 26.1902 23.041 25.5634C23.2025 25.2492 23.3403 25.0123 23.4329 24.8512C23.5282 24.6911 23.5773 24.6085 23.5773 24.6085L24.4534 23.2562L23.1138 24.1624C23.1138 24.1624 23.0309 24.2212 22.8702 24.335C22.7094 24.4501 22.4777 24.6294 22.1854 24.8815C21.6041 25.3852 20.7918 26.2064 19.9944 27.4605C19.1979 28.7088 18.45 30.4068 18.0532 32.4864C17.6574 34.5608 17.6273 37.0125 18.2243 39.6152C18.3749 40.2648 18.5693 40.9212 18.8036 41.582Z" fill="#FA1239"/>
<path d="M67.8086 19.5377C67.5846 18.4642 67.318 17.4614 67.0316 16.5331C66.7564 15.6454 66.4642 14.8276 66.1674 14.078L71.7059 15.2467L59.712 0L61.1741 20.4354L64.7137 14.5628C64.9065 15.3052 65.0877 16.1078 65.2399 16.9708C65.4012 17.875 65.531 18.8422 65.6182 19.8619C65.7078 20.8812 65.7541 21.9539 65.7327 23.0675C65.6978 25.2938 65.3844 27.6852 64.7084 30.0893C64.0261 32.4906 62.9587 34.8967 61.4741 37.1202L61.1919 37.5354L60.9012 37.9467L60.6002 38.3578C60.4869 38.518 60.3951 38.6264 60.2978 38.7502L60.1534 38.933L59.9954 39.1223C59.8874 39.2481 59.7856 39.3786 59.6728 39.5011L59.3397 39.8733L58.9942 40.2365C58.0563 41.1927 57.0211 42.0808 55.8887 42.8683C54.9122 43.5524 53.8714 44.1701 52.7827 44.7169C51.86 46.2371 50.8403 47.6231 49.7465 48.8369L49.5773 49.0218C49.3381 49.2836 49.0907 49.5543 48.7982 49.8414L48.3683 50.2713L47.6075 50.9715L46.8462 51.6239L46.8168 51.6471C46.7158 51.7264 46.6156 51.8068 46.5153 51.8874C46.29 52.0684 46.0569 52.2557 45.804 52.4402C45.2494 52.8558 44.6786 53.2522 44.0957 53.6298C44.1254 53.6232 44.1539 53.6175 44.184 53.6105L44.5188 53.5363C44.625 53.5118 44.7089 53.4879 44.805 53.4634L45.416 53.3031C46.2133 53.084 47.0056 52.8365 47.7922 52.5697C48.5793 52.304 49.3619 52.0204 50.134 51.7049C53.2177 50.449 56.2116 48.8565 58.8222 46.7619C60.1298 45.7235 61.3331 44.5591 62.3991 43.301L62.7924 42.8249L63.1706 42.3386C63.2977 42.1781 63.414 42.0088 63.5354 41.8447L63.7154 41.5948L63.8961 41.3302C64.0146 41.1553 64.1436 40.9695 64.2323 40.8229C64.337 40.6559 64.4415 40.4891 64.5458 40.3227C64.7478 39.9823 64.9433 39.6403 65.1297 39.2951C65.8706 37.9117 66.4825 36.4939 66.9668 35.074C67.4492 33.6529 67.8 32.2296 68.0422 30.8352C68.2867 29.4408 68.4114 28.0729 68.4472 26.755C68.4845 25.4369 68.4348 24.1681 68.3191 22.9619C68.2064 21.7559 68.0266 20.6119 67.8086 19.5377Z" fill="#FA1239"/>
<path d="M54.2212 33.9399C54.2686 33.602 54.2115 33.2649 54.2046 32.9285C54.1857 32.7105 54.1466 32.4929 54.1279 32.2756C54.1089 32.0582 54.0884 31.841 54.0651 31.6245C54.0372 31.4091 53.9959 31.1969 53.9611 30.9834C53.924 30.7703 53.887 30.5576 53.85 30.3453C53.8159 30.132 53.7507 29.9278 53.7018 29.7193C53.5922 29.306 53.5006 28.8875 53.3556 28.4896C53.0946 27.6828 52.7771 26.905 52.4163 26.1578C52.2244 25.79 52.0399 25.4206 51.8397 25.0628C51.6222 24.715 51.4058 24.3691 51.1906 24.0249C50.2823 22.679 49.2144 21.488 48.0497 20.4721C46.8854 19.4566 45.625 18.6088 44.3087 17.9796L44.0655 17.8582L44.0048 17.8282L43.8763 17.7626L43.8499 17.7522L43.7444 17.7106C43.6039 17.6553 43.4638 17.6001 43.3244 17.5452C43.1851 17.4904 43.0463 17.4358 42.9083 17.3814L42.8026 17.3403L42.6686 17.2941L42.4014 17.2032C42.2239 17.1442 42.0472 17.0855 41.8714 17.0271C41.6977 16.9731 41.5169 16.9054 41.3516 16.8677C41.0228 16.7923 40.6972 16.7177 40.3751 16.6438C39.0832 16.3917 37.8377 16.2649 36.6642 16.3014C36.5182 16.3029 36.3729 16.3041 36.2286 16.3054C36.0847 16.3168 35.9417 16.3279 35.7996 16.339C35.5175 16.363 35.2393 16.3866 34.9649 16.4099C34.42 16.4913 33.8936 16.5558 33.3934 16.6758C31.3853 17.1089 29.7639 17.842 28.5416 18.5749C28.3899 18.6681 28.2422 18.7588 28.0987 18.847C28.0277 18.8912 27.9577 18.9348 27.8887 18.9776C27.8225 19.0259 27.7572 19.0737 27.693 19.1205C27.4401 19.3077 27.2031 19.4832 26.9826 19.6465C26.5608 19.9987 26.218 20.3085 25.9492 20.5648C25.4329 21.1105 25.1801 21.4052 25.1801 21.4052L24.3858 22.4142L25.5693 21.9174C25.5693 21.9174 25.932 21.7812 26.5694 21.5186C26.7304 21.4558 26.9198 21.4027 27.1186 21.3331C27.3202 21.2681 27.5315 21.1855 27.7702 21.12C28.0071 21.0564 28.2616 20.988 28.5333 20.915C28.6003 20.8971 28.6684 20.879 28.7375 20.8605C28.8083 20.8464 28.8801 20.8319 28.953 20.8173C29.0973 20.7878 29.2457 20.7574 29.3982 20.7262C30.6145 20.4885 32.096 20.3418 33.7377 20.4298C33.942 20.4309 34.1506 20.4615 34.3602 20.4835C34.5697 20.5046 34.7813 20.521 34.9946 20.5454C35.2065 20.5807 35.4215 20.6165 35.6394 20.6529C35.7473 20.6708 35.8561 20.6889 35.9655 20.707C36.0736 20.732 36.1825 20.7571 36.292 20.7824C36.5104 20.8325 36.731 20.8776 36.9518 20.9307C37.1691 20.9958 37.3891 21.0617 37.6116 21.1284C37.8346 21.1875 38.0519 21.2725 38.2719 21.3518C38.3817 21.3913 38.492 21.4309 38.6029 21.4708L38.7691 21.53L38.931 21.6033C39.1461 21.6992 39.3634 21.7962 39.5829 21.894C39.7849 21.9959 39.9617 22.0981 40.1541 22.1952L40.2961 22.2679L40.3674 22.3039L40.4612 22.3593C40.5886 22.4354 40.7167 22.5118 40.8452 22.5886C40.9738 22.6652 41.1029 22.7424 41.2326 22.8199L41.33 22.8781L41.3544 22.8927C41.1644 22.7961 41.3124 22.8739 41.2747 22.8558L41.3115 22.8835L41.4595 22.9938C42.2712 23.5399 43.0277 24.2266 43.7281 24.9935C44.4281 25.7622 45.0648 26.6266 45.6193 27.5649C46.1702 28.5058 46.6329 29.5218 46.9884 30.5853C47.0944 30.8467 47.1563 31.1204 47.238 31.3906C47.325 31.6603 47.3806 31.936 47.4436 32.2123C47.4737 32.3504 47.5115 32.4884 47.5372 32.6276C47.5566 32.7676 47.579 32.9073 47.6029 33.0474L47.6756 33.4692L47.7105 33.8344L47.7595 34.2022C47.7612 34.2193 47.765 34.2294 47.7652 34.2521L47.7662 34.3203L47.7681 34.457L47.7719 34.7305L47.7823 35.2786L47.7838 35.3473L47.7847 35.3816C47.7968 35.1468 47.7874 35.3322 47.7898 35.287L47.786 35.3968L47.7788 35.6168C47.7717 36.2057 47.6916 36.8002 47.6055 37.4017C47.3994 38.6008 47.0378 39.8153 46.5116 40.9901C46.2421 41.5743 45.9558 42.1598 45.6074 42.7155C45.4477 43.002 45.2544 43.269 45.0754 43.5455C44.9838 43.6827 44.8824 43.8132 44.7866 43.9478C44.6879 44.0803 44.5966 44.2187 44.4906 44.3462C44.2841 44.6035 44.0762 44.8746 43.8751 45.0994L43.7235 45.2768L43.6479 45.3658L43.6097 45.4107L43.5613 45.4618L43.1741 45.8711L43.0774 45.9733L43.029 46.0244L43.0049 46.05C43.0689 45.9884 43.0097 46.0456 43.0182 46.0375L42.8384 46.2143L42.4793 46.5689C42.2278 46.7939 41.9872 47.0305 41.727 47.2476C40.7008 48.1303 39.5982 48.9428 38.43 49.6612C37.2643 50.3829 36.0449 51.0232 34.7973 51.5916C34.4855 51.7338 34.1733 51.874 33.8571 52.0046C33.5403 52.1422 33.232 52.263 32.9234 52.3865C32.7743 52.4481 32.6062 52.5104 32.4375 52.5725C32.2703 52.6346 32.1034 52.6965 31.9369 52.7584C31.6209 52.8651 31.3063 52.9716 30.993 53.0775C28.4383 53.9486 25.871 54.5349 23.4004 54.9089C20.9284 55.2811 18.5504 55.4203 16.3514 55.4016C16.0762 55.3974 15.804 55.3932 15.5347 55.3891C15.3998 55.3871 15.2658 55.3851 15.1324 55.3831C14.9994 55.3762 14.8672 55.3692 14.7356 55.3623C14.2083 55.3342 13.6932 55.3069 13.191 55.2801C12.1912 55.1799 11.2347 55.1083 10.3464 54.9656C8.56 54.7302 7.02218 54.3843 5.7541 54.0947C4.50217 53.7734 3.51951 53.5017 2.84536 53.2738C2.17251 53.0608 1.81371 52.9471 1.81371 52.9471L0 52.3483L1.5813 53.547C1.5813 53.547 1.92302 53.7047 2.56383 54.0005C3.19322 54.3082 4.16762 54.702 5.41815 55.1865C5.73266 55.2975 6.06414 55.4143 6.41164 55.5369C6.76008 55.6583 7.12254 55.795 7.50997 55.904C7.89622 56.0196 8.29826 56.1398 8.71526 56.2646C8.81974 56.2957 8.92517 56.327 9.03154 56.3587C9.13897 56.3859 9.24734 56.4132 9.35654 56.4409C9.57541 56.4962 9.79792 56.5525 10.0241 56.6096C10.9264 56.856 11.9033 57.0384 12.9331 57.2546C13.452 57.3392 13.9843 57.4259 14.5291 57.5147C14.6656 57.5365 14.8031 57.5584 14.9411 57.5803C15.0799 57.5962 15.2195 57.6123 15.3598 57.6284C15.6408 57.6606 15.925 57.6931 16.2121 57.7259C18.5113 57.9728 21.031 58.0754 23.6995 57.9395C26.3676 57.8077 29.1805 57.4158 32.0416 56.7306C32.2203 56.6869 32.3993 56.6432 32.5787 56.5993L32.8482 56.5333L32.9832 56.5002L33.0507 56.4836C33.0704 56.478 33.0544 56.4841 33.1035 56.4691L33.1356 56.4601C33.3067 56.4125 33.4782 56.3649 33.6501 56.3172C33.8208 56.2703 33.9924 56.2229 34.1802 56.1643C34.5473 56.0534 34.9185 55.9423 35.2746 55.8225C35.6357 55.7077 35.9955 55.5818 36.356 55.4532C37.8003 54.9441 39.235 54.3175 40.6471 53.5884C42.0606 52.8624 43.4396 52.0045 44.7525 51.0196C45.0841 50.7785 45.3999 50.5124 45.7244 50.2576L46.1961 49.8539L46.4319 49.6513L46.6783 49.4244L47.0928 49.0428L47.1447 48.9951L47.2029 48.9373L47.3196 48.8207L47.5528 48.5867C47.8745 48.2716 48.147 47.9648 48.4325 47.6543C49.5588 46.4045 50.5499 45.022 51.4226 43.5514C51.8463 42.8083 52.2442 42.0454 52.5825 41.2495C52.938 40.4618 53.2187 39.6364 53.4756 38.8028C53.7065 37.9605 53.9092 37.1057 54.0254 36.2328L54.0721 35.9061L54.0955 35.7427L54.1168 35.4772L54.1625 34.9308L54.1859 34.6581L54.2015 34.5219L54.2169 34.4538C54.2188 34.4299 54.2409 34.392 54.2385 34.3629C54.2334 34.2204 54.2274 34.0824 54.2212 33.9399Z" fill="#FA1239"/>
<path d="M100.46 28.3054C99.3537 28.8587 97.1408 29.4118 94.3054 29.4118C87.7352 29.4118 82.7903 25.2623 82.7903 17.6203C82.7903 10.324 87.7352 5.37904 94.9623 5.37904C97.867 5.37904 99.6998 6.00137 100.495 6.41625L99.7688 8.87143C98.6278 8.31809 97.0024 7.90297 95.0661 7.90297C89.6024 7.90297 85.9716 11.3956 85.9716 17.516C85.9716 23.2215 89.2565 26.887 94.9277 26.887C96.7605 26.887 98.6278 26.5067 99.838 25.9187L100.46 28.3054Z" fill="black"/>
<path d="M123.421 17.1708C123.421 25.1933 118.545 29.4465 112.598 29.4465C106.443 29.4465 102.12 24.6745 102.12 17.6205C102.12 10.2204 106.719 5.37925 112.944 5.37925C119.306 5.37925 123.421 10.255 123.421 17.1708ZM105.336 17.5513C105.336 22.5307 108.033 26.9915 112.77 26.9915C117.543 26.9915 120.24 22.5999 120.24 17.3092C120.24 12.6756 117.819 7.83443 112.805 7.83443C107.826 7.83443 105.336 12.4335 105.336 17.5513Z" fill="black"/>
<path d="M146.97 18.8308C146.797 15.5805 146.59 11.673 146.624 8.76829H146.521C145.725 11.5001 144.757 14.4048 143.581 17.6208L139.466 28.9282H137.184L133.415 17.8282C132.309 14.543 131.375 11.5347 130.718 8.76852H130.649C130.58 11.6732 130.407 15.5807 130.199 19.0733L129.577 29.0667H126.707L128.332 5.76H132.171L136.147 17.0331C137.115 19.9029 137.91 22.4619 138.498 24.8827H138.602C139.19 22.5311 140.02 19.9723 141.057 17.0331L145.207 5.76H149.045L150.498 29.0667H147.558L146.97 18.8308Z" fill="black"/>
<path d="M155.131 6.03621C156.583 5.79439 158.485 5.58671 160.905 5.58671C163.879 5.58671 166.057 6.27826 167.441 7.52315C168.72 8.6296 169.481 10.3242 169.481 12.3989C169.481 14.5084 168.859 16.168 167.683 17.3785C166.092 19.0729 163.498 19.9373 160.559 19.9373C159.66 19.9373 158.83 19.9026 158.139 19.7296V29.0662H155.13L155.131 6.03621ZM158.139 17.2744C158.796 17.4475 159.626 17.5165 160.629 17.5165C164.26 17.5165 166.473 15.7531 166.473 12.5371C166.473 9.45961 164.295 7.97243 160.975 7.97243C159.661 7.97243 158.658 8.07602 158.139 8.21448V17.2744Z" fill="black"/>
<path d="M174.392 21.7355L171.971 29.0664H168.859L176.777 5.75975H180.408L188.361 29.0664H185.145L182.656 21.7355H174.392ZM182.034 19.3839L179.751 12.6753C179.233 11.154 178.887 9.77064 178.541 8.42191H178.472C178.126 9.80525 177.746 11.223 177.296 12.6407L175.014 19.3837H182.034V19.3839Z" fill="black"/>
<path d="M191.785 29.0662V5.75952H195.07L202.54 17.5513C204.269 20.2832 205.617 22.7383 206.724 25.1243L206.793 25.0897C206.516 21.9775 206.447 19.1419 206.447 15.5112V5.75976H209.283V29.0664H206.24L198.84 17.2403C197.215 14.6469 195.658 11.984 194.483 9.45983L194.379 9.49421C194.552 12.4335 194.621 15.2346 194.621 19.1072V29.0662H191.785Z" fill="black"/>
<path d="M219.484 29.0662V19.1765L212.119 5.75952H215.542L218.827 12.1914C219.726 13.9548 220.418 15.3728 221.144 16.998H221.213C221.87 15.4764 222.665 13.9548 223.565 12.1914L226.919 5.75952H230.342L222.527 19.1419V29.0662H219.484Z" fill="black"/>
<path d="M82.7903 48.2171C82.8375 47.414 82.8847 46.4219 82.8847 45.5718V31.4465H83.9949V38.9816H84.0422C84.798 37.5171 86.1914 36.6195 88.1992 36.6195C91.0574 36.6195 93.0415 39.0049 93.0415 42.4302C93.0415 46.4694 90.4668 48.477 87.9869 48.477C86.1681 48.477 84.8217 47.7447 83.9241 46.1621H83.8768L83.806 48.2171H82.7903ZM83.9949 43.8475C83.9949 44.1073 84.0422 44.3908 84.0894 44.6742C84.5855 46.3985 86.0499 47.5323 87.8215 47.5323C90.4198 47.5323 91.908 45.4065 91.908 42.4538C91.908 39.8558 90.4907 37.5407 87.916 37.5407C86.2625 37.5407 84.6799 38.6981 84.1367 40.5878C84.0658 40.8712 83.9949 41.1781 83.9949 41.5796V43.8475Z" fill="black"/>
<path d="M104.639 45.4537C104.639 46.4455 104.686 47.3431 104.734 48.2171H103.694L103.624 46.2093H103.576C103.009 47.2487 101.71 48.477 99.6788 48.477C98.238 48.477 95.8286 47.7683 95.8286 43.4693V36.8793H96.9388V43.2567C96.9388 45.7133 97.7181 47.4849 99.9623 47.4849C101.616 47.4849 102.82 46.3274 103.293 45.1936C103.411 44.8393 103.529 44.3905 103.529 43.9417V36.8793H104.639V45.4537Z" fill="black"/>
<path d="M107.993 46.729C108.607 47.1069 109.528 47.5085 110.544 47.5085C112.339 47.5085 113.189 46.54 113.189 45.3592C113.189 44.1075 112.434 43.4459 110.804 42.7845C108.938 42.0759 107.922 41.0602 107.922 39.6904C107.922 38.0606 109.198 36.6197 111.418 36.6197C112.457 36.6197 113.331 36.9268 113.922 37.3283L113.473 38.2493C113.095 37.9658 112.363 37.5643 111.229 37.5643C109.788 37.5643 109.032 38.4855 109.032 39.5248C109.032 40.7059 109.835 41.2253 111.371 41.8633C113.213 42.5717 114.3 43.4931 114.3 45.2172C114.3 47.1542 112.788 48.4533 110.473 48.4533C109.363 48.4533 108.347 48.1462 107.591 47.6738L107.993 46.729Z" fill="black"/>
<path d="M118.74 33.6434C118.74 34.1631 118.386 34.6119 117.796 34.6119C117.276 34.6119 116.922 34.1631 116.922 33.6434C116.922 33.1235 117.323 32.6514 117.843 32.6514C118.386 32.6514 118.74 33.1002 118.74 33.6434ZM117.276 48.2171V36.8793H118.386V48.2171H117.276Z" fill="black"/>
<path d="M122.213 39.5957C122.213 38.5564 122.166 37.7771 122.118 36.8795H123.158L123.252 38.9343H123.299C123.913 37.6588 125.331 36.6197 127.197 36.6197C128.283 36.6197 131.141 37.163 131.141 41.4145V48.2173H130.031V41.509C130.031 39.454 129.228 37.5879 126.89 37.5879C125.283 37.5879 123.937 38.7217 123.489 40.1862C123.394 40.4697 123.323 40.8474 123.323 41.2019V48.2171H122.213V39.5957H122.213Z" fill="black"/>
<path d="M135.039 42.4302C135.039 46.0678 137.023 47.4849 139.362 47.4849C141.015 47.4849 141.865 47.1542 142.503 46.8471L142.787 47.7447C142.361 47.9809 141.204 48.4531 139.22 48.4531C135.96 48.4531 133.929 46.091 133.929 42.7607C133.929 38.9813 136.102 36.6192 139.031 36.6192C142.739 36.6192 143.448 40.1149 143.448 41.7447C143.448 42.0518 143.448 42.2408 143.401 42.43H135.039V42.4302ZM142.267 41.5326C142.29 39.9498 141.629 37.5407 138.889 37.5407C136.385 37.5407 135.299 39.7847 135.11 41.5326H142.267Z" fill="black"/>
<path d="M145.857 46.729C146.471 47.1069 147.392 47.5085 148.408 47.5085C150.203 47.5085 151.054 46.54 151.054 45.3592C151.054 44.1075 150.298 43.4459 148.668 42.7845C146.802 42.0759 145.786 41.0602 145.786 39.6904C145.786 38.0606 147.062 36.6197 149.282 36.6197C150.321 36.6197 151.195 36.9268 151.786 37.3283L151.337 38.2493C150.959 37.9658 150.227 37.5643 149.093 37.5643C147.652 37.5643 146.896 38.4855 146.896 39.5248C146.896 40.7059 147.699 41.2253 149.235 41.8633C151.077 42.5717 152.164 43.4931 152.164 45.2172C152.164 47.1542 150.652 48.4533 148.337 48.4533C147.227 48.4533 146.211 48.1462 145.455 47.6738L145.857 46.729Z" fill="black"/>
<path d="M154.667 46.729C155.281 47.1069 156.202 47.5085 157.218 47.5085C159.013 47.5085 159.864 46.54 159.864 45.3592C159.864 44.1075 159.108 43.4459 157.478 42.7845C155.612 42.0759 154.596 41.0602 154.596 39.6904C154.596 38.0606 155.872 36.6197 158.092 36.6197C159.131 36.6197 160.005 36.9268 160.596 37.3283L160.147 38.2493C159.769 37.9658 159.037 37.5643 157.903 37.5643C156.462 37.5643 155.706 38.4855 155.706 39.5248C155.706 40.7059 156.509 41.2253 158.045 41.8633C159.887 42.5717 160.974 43.4931 160.974 45.2172C160.974 47.1542 159.462 48.4533 157.147 48.4533C156.037 48.4533 155.021 48.1462 154.265 47.6738L154.667 46.729Z" fill="black"/>
<path d="M170.682 33.5962V36.8795H173.918V37.7771H170.682V45.1466C170.682 46.5875 171.131 47.5087 172.335 47.5087C172.926 47.5087 173.351 47.4145 173.634 47.3198L173.776 48.1937C173.398 48.3352 172.878 48.4533 172.193 48.4533C171.367 48.4533 170.682 48.1937 170.256 47.6502C169.737 47.0597 169.548 46.1148 169.548 44.9574V37.7769H167.635V36.8793H169.548V33.9503L170.682 33.5962Z" fill="black"/>
<path d="M182.61 48.2171L182.445 46.5873H182.374C181.831 47.461 180.579 48.4769 178.76 48.4769C176.492 48.4769 175.429 46.8707 175.429 45.359C175.429 42.737 177.744 41.1547 182.35 41.2019V40.9184C182.35 39.7844 182.138 37.5407 179.445 37.5643C178.453 37.5643 177.414 37.8239 176.611 38.4146L176.256 37.5879C177.272 36.9029 178.547 36.6194 179.563 36.6194C182.846 36.6194 183.461 39.076 183.461 41.1072V45.5243C183.461 46.4219 183.508 47.3429 183.626 48.2171H182.61ZM182.35 42.1467C179.87 42.0756 176.61 42.4538 176.61 45.1702C176.61 46.8001 177.697 47.5323 178.878 47.5323C180.767 47.5323 181.83 46.3749 182.232 45.2647C182.303 45.0285 182.35 44.7925 182.35 44.5797V42.1467Z" fill="black"/>
<path d="M196.263 36.8795C196.216 37.7299 196.168 38.6275 196.168 39.8083V46.5636C196.168 49.469 195.578 50.9099 194.633 51.8075C193.594 52.7996 192.059 53.1539 190.783 53.1539C189.484 53.1539 188.043 52.8232 187.193 52.1854L187.594 51.264C188.374 51.7839 189.484 52.2088 190.948 52.2088C193.334 52.2088 195.058 50.9805 195.058 47.6263V46.0203H195.011C194.421 47.1775 193.098 48.2171 191.067 48.2171C188.208 48.2171 186.201 45.7371 186.201 42.6425C186.201 38.6981 188.799 36.6194 191.302 36.6194C193.547 36.6194 194.657 37.8477 195.129 38.7926H195.176L195.223 36.8793H196.263V36.8795ZM195.058 41.2255C195.058 40.824 195.011 40.4699 194.916 40.139C194.444 38.769 193.239 37.5407 191.397 37.5407C188.988 37.5407 187.334 39.5248 187.334 42.5244C187.334 45.0755 188.681 47.2723 191.35 47.2723C192.861 47.2723 194.279 46.351 194.846 44.7214C194.987 44.3435 195.058 43.9181 195.058 43.5168V41.2255Z" fill="black"/>
<path d="M199.995 31.4465H201.105V48.2171H199.995V31.4465Z" fill="black"/>
<path d="M206.467 33.6434C206.467 34.1631 206.112 34.6119 205.522 34.6119C205.002 34.6119 204.648 34.1631 204.648 33.6434C204.648 33.1235 205.05 32.6514 205.569 32.6514C206.112 32.6514 206.467 33.1002 206.467 33.6434ZM205.002 48.2171V36.8793H206.112V48.2171H205.002Z" fill="black"/>
<path d="M209.939 39.5957C209.939 38.5564 209.892 37.7771 209.844 36.8795H210.884L210.978 38.9343H211.025C211.64 37.6588 213.057 36.6197 214.923 36.6197C216.009 36.6197 218.867 37.163 218.867 41.4145V48.2173H217.757V41.509C217.757 39.454 216.954 37.5879 214.616 37.5879C213.009 37.5879 211.663 38.7217 211.214 40.1862C211.12 40.4697 211.049 40.8474 211.049 41.2019V48.2171H209.939L209.939 39.5957Z" fill="black"/>
<path d="M222.765 42.4302C222.765 46.0678 224.749 47.4849 227.087 47.4849C228.741 47.4849 229.591 47.1542 230.229 46.8471L230.513 47.7447C230.088 47.9809 228.93 48.4531 226.946 48.4531C223.686 48.4531 221.655 46.091 221.655 42.7607C221.655 38.9813 223.828 36.6192 226.757 36.6192C230.465 36.6192 231.174 40.1149 231.174 41.7447C231.174 42.0518 231.174 42.2408 231.127 42.43H222.765V42.4302ZM229.993 41.5326C230.017 39.9498 229.355 37.5407 226.615 37.5407C224.111 37.5407 223.025 39.7847 222.836 41.5326H229.993Z" fill="black"/>
</svg>
