<svg width="18" height="17" viewBox="0 0 18 17" fill="none" xmlns="http://www.w3.org/2000/svg">
<path d="M8.56088 14.0233L4.41088 16.5233C4.22754 16.64 4.03588 16.69 3.83588 16.6733C3.63588 16.6566 3.46088 16.59 3.31088 16.4733C3.16088 16.3566 3.04421 16.211 2.96088 16.0363C2.87754 15.8616 2.86088 15.6656 2.91088 15.4483L4.01088 10.7233L0.335876 7.5483C0.169209 7.3983 0.0652091 7.2273 0.0238758 7.0353C-0.0174575 6.8433 -0.00512426 6.65597 0.0608757 6.4733C0.126876 6.29064 0.226876 6.14064 0.360876 6.0233C0.494876 5.90597 0.678209 5.83097 0.910876 5.7983L5.76088 5.3733L7.63588 0.923303C7.71921 0.723303 7.84854 0.573303 8.02388 0.473303C8.19921 0.373303 8.37821 0.323303 8.56088 0.323303C8.74354 0.323303 8.92254 0.373303 9.09788 0.473303C9.27321 0.573303 9.40254 0.723303 9.48588 0.923303L11.3609 5.3733L16.2109 5.7983C16.4442 5.83164 16.6275 5.90664 16.7609 6.0233C16.8942 6.13997 16.9942 6.28997 17.0609 6.4733C17.1275 6.65664 17.1402 6.8443 17.0989 7.0363C17.0575 7.2283 16.9532 7.39897 16.7859 7.5483L13.1109 10.7233L14.2109 15.4483C14.2609 15.665 14.2442 15.861 14.1609 16.0363C14.0775 16.2116 13.9609 16.3573 13.8109 16.4733C13.6609 16.5893 13.4859 16.656 13.2859 16.6733C13.0859 16.6906 12.8942 16.6406 12.7109 16.5233L8.56088 14.0233Z" fill="#FFAB00"/>
</svg>
